<svg width="16" height="16" viewBox="0 0 16 16" xmlns="http://www.w3.org/2000/svg" fill="none">
  <!-- Taller Folder -->
  <path
    d="M2 4.3V6H5.58579C5.71839 6 5.84557 5.94732 5.93934 5.85355L7.29289 4.5L5.93934 3.14645C5.84557 3.05268 5.71839 3 5.58579 3H3.5C2.67157 3 2 3.47157 2 4.3ZM1 4.3C1 2.91929 2.11929 2 3.5 2H5.58579C5.98361 2 6.36514 2.15804 6.64645 2.43934L8.20711 4H12.5C13.8807 4 15 5.11929 15 6.5V12C15 13.3807 13.8807 14.5 12.5 14.5H3.5C2.11929 14.5 1 13.3807 1 12V4.3ZM2 7V12C2 12.8284 2.67157 13.5 3.5 13.5H12.5C13.3284 13.5 14 12.8284 14 12V6.5C14 5.67157 13.3284 5 12.5 5H8.20711L6.64645 6.56066C6.36514 6.84197 5.98361 7 5.58579 7H2Z"
    fill="currentColor"
  />

  <!-- Extended Line Compass -->
  <g
    transform="translate(8 9.2) rotate(45)"
    stroke="currentColor"
    stroke-width="1"
    stroke-linejoin="round"
    stroke-linecap="round"
    fill="none"
    opacity="0.9"
  >
    <!-- Top arrow -->
    <path d="M0 -4.4 L1.2 0" />
    <path d="M0 -4.4 L-1.2 0" />

    <!-- Bottom arrow -->
    <path d="M0 4.4 L1.2 0" />
    <path d="M0 4.4 L-1.2 0" />
  </g>
</svg>